<svg xmlns="http://www.w3.org/2000/svg" xmlns:xlink="http://www.w3.org/1999/xlink" width="2000" zoomAndPan="magnify" viewBox="0 0 1500 1499.999933" height="2000" preserveAspectRatio="xMidYMid meet" version="1.0"><defs><g/><clipPath id="3ffedfdcff"><path d="M 562.554688 819 L 651 819 L 651 904.410156 L 562.554688 904.410156 Z M 562.554688 819 " clip-rule="nonzero"/></clipPath><clipPath id="ffbd9f6905"><path d="M 562.554688 720 L 733.554688 720 L 733.554688 904.410156 L 562.554688 904.410156 Z M 562.554688 720 " clip-rule="nonzero"/></clipPath></defs><rect x="-150" width="1800" fill="#ffffff" y="-149.999993" height="1799.99992" fill-opacity="1"/><rect x="-150" width="1800" fill="#fffaf6" y="-149.999993" height="1799.99992" fill-opacity="1"/><g clip-path="url(#3ffedfdcff)"><path fill="#304945" d="M 501.140625 901.828125 C 501.375 903.964844 501.699219 906.085938 502.113281 908.195312 C 502.523438 910.304688 503.027344 912.390625 503.613281 914.457031 C 504.203125 916.523438 504.878906 918.5625 505.640625 920.570312 C 506.402344 922.578125 507.25 924.554688 508.179688 926.492188 C 509.105469 928.429688 510.117188 930.324219 511.207031 932.175781 C 512.292969 934.027344 513.460938 935.828125 514.703125 937.582031 C 515.945312 939.335938 517.257812 941.035156 518.644531 942.675781 C 520.027344 944.320312 521.480469 945.898438 523 947.417969 C 524.519531 948.9375 526.101562 950.390625 527.742188 951.777344 C 529.386719 953.160156 531.082031 954.476562 532.835938 955.71875 C 534.589844 956.960938 536.394531 958.125 538.246094 959.214844 C 540.097656 960.304688 541.992188 961.3125 543.929688 962.242188 C 545.867188 963.171875 547.839844 964.015625 549.847656 964.777344 C 551.859375 965.539062 553.894531 966.214844 555.960938 966.804688 C 558.027344 967.394531 560.113281 967.894531 562.222656 968.308594 C 564.332031 968.722656 566.453125 969.042969 568.589844 969.277344 C 595.832031 971.992188 623.140625 973.238281 650.515625 973.015625 C 623.140625 972.789062 595.828125 974.035156 568.582031 976.746094 C 566.449219 976.980469 564.324219 977.304688 562.21875 977.71875 C 560.109375 978.128906 558.023438 978.632812 555.957031 979.222656 C 553.890625 979.8125 551.851562 980.488281 549.84375 981.25 C 547.835938 982.011719 545.863281 982.855469 543.925781 983.785156 C 541.988281 984.714844 540.09375 985.722656 538.242188 986.8125 C 536.390625 987.902344 534.585938 989.070312 532.832031 990.308594 C 531.078125 991.550781 529.382812 992.867188 527.742188 994.25 C 526.097656 995.636719 524.519531 997.089844 523 998.609375 C 521.480469 1000.128906 520.027344 1001.707031 518.640625 1003.351562 C 517.257812 1004.992188 515.941406 1006.691406 514.703125 1008.445312 C 513.460938 1010.199219 512.292969 1012 511.203125 1013.851562 C 510.117188 1015.703125 509.105469 1017.597656 508.179688 1019.535156 C 507.25 1021.472656 506.402344 1023.445312 505.640625 1025.457031 C 504.878906 1027.464844 504.203125 1029.5 503.613281 1031.566406 C 503.027344 1033.632812 502.523438 1035.722656 502.113281 1037.828125 C 501.699219 1039.9375 501.375 1042.058594 501.140625 1044.195312 C 498.429688 1071.4375 497.183594 1098.75 497.410156 1126.125 C 497.632812 1098.75 496.386719 1071.4375 493.671875 1044.195312 C 493.4375 1042.058594 493.117188 1039.9375 492.703125 1037.828125 C 492.289062 1035.71875 491.789062 1033.632812 491.199219 1031.566406 C 490.609375 1029.5 489.933594 1027.464844 489.171875 1025.453125 C 488.410156 1023.445312 487.566406 1021.472656 486.636719 1019.535156 C 485.707031 1017.597656 484.699219 1015.703125 483.609375 1013.851562 C 482.519531 1011.996094 481.355469 1010.195312 480.113281 1008.441406 C 478.871094 1006.6875 477.558594 1004.988281 476.171875 1003.347656 C 474.785156 1001.707031 473.332031 1000.125 471.8125 998.605469 C 470.296875 997.085938 468.714844 995.632812 467.070312 994.246094 C 465.429688 992.863281 463.730469 991.546875 461.976562 990.308594 C 460.226562 989.066406 458.421875 987.898438 456.570312 986.808594 C 454.71875 985.722656 452.824219 984.710938 450.886719 983.78125 C 448.949219 982.855469 446.976562 982.007812 444.964844 981.246094 C 442.957031 980.484375 440.917969 979.808594 438.851562 979.21875 C 436.785156 978.628906 434.699219 978.128906 432.589844 977.714844 C 430.480469 977.304688 428.359375 976.980469 426.222656 976.746094 C 398.980469 974.035156 371.671875 972.789062 344.292969 973.015625 C 371.671875 973.238281 398.980469 971.992188 426.222656 969.277344 C 428.359375 969.042969 430.480469 968.722656 432.589844 968.308594 C 434.699219 967.894531 436.785156 967.394531 438.851562 966.804688 C 440.917969 966.214844 442.957031 965.539062 444.964844 964.777344 C 446.976562 964.015625 448.949219 963.171875 450.886719 962.242188 C 452.824219 961.3125 454.71875 960.304688 456.570312 959.214844 C 458.421875 958.125 460.226562 956.960938 461.980469 955.71875 C 463.734375 954.476562 465.429688 953.164062 467.074219 951.777344 C 468.714844 950.390625 470.296875 948.941406 471.816406 947.421875 C 473.335938 945.902344 474.785156 944.320312 476.171875 942.679688 C 477.558594 941.035156 478.871094 939.335938 480.113281 937.585938 C 481.355469 935.832031 482.519531 934.027344 483.609375 932.175781 C 484.699219 930.324219 485.707031 928.429688 486.636719 926.492188 C 487.566406 924.554688 488.410156 922.582031 489.171875 920.570312 C 489.933594 918.5625 490.609375 916.523438 491.199219 914.457031 C 491.789062 912.390625 492.289062 910.304688 492.703125 908.195312 C 493.117188 906.085938 493.4375 903.964844 493.671875 901.828125 C 496.386719 874.585938 497.632812 847.277344 497.410156 819.898438 C 497.183594 847.277344 498.429688 874.585938 501.140625 901.828125 Z M 501.140625 901.828125 " fill-opacity="1" fill-rule="nonzero"/></g><g clip-path="url(#ffbd9f6905)"><path fill="#304945" d="M 652.804688 770.585938 C 652.945312 771.890625 653.144531 773.1875 653.394531 774.476562 C 653.648438 775.761719 653.953125 777.035156 654.3125 778.296875 C 654.671875 779.558594 655.085938 780.804688 655.550781 782.03125 C 656.015625 783.257812 656.53125 784.460938 657.097656 785.644531 C 657.667969 786.828125 658.28125 787.984375 658.949219 789.113281 C 659.613281 790.246094 660.324219 791.347656 661.082031 792.417969 C 661.839844 793.488281 662.644531 794.523438 663.488281 795.527344 C 664.335938 796.53125 665.222656 797.496094 666.148438 798.421875 C 667.078125 799.351562 668.042969 800.238281 669.042969 801.082031 C 670.046875 801.929688 671.082031 802.730469 672.15625 803.488281 C 673.226562 804.246094 674.324219 804.957031 675.457031 805.625 C 676.585938 806.289062 677.742188 806.90625 678.925781 807.472656 C 680.109375 808.039062 681.316406 808.554688 682.542969 809.019531 C 683.769531 809.484375 685.011719 809.898438 686.273438 810.257812 C 687.535156 810.617188 688.808594 810.925781 690.097656 811.175781 C 691.382812 811.429688 692.679688 811.625 693.984375 811.769531 C 710.617188 813.425781 727.292969 814.183594 744.011719 814.046875 C 727.292969 813.910156 710.617188 814.671875 693.984375 816.328125 C 692.679688 816.46875 691.382812 816.667969 690.097656 816.917969 C 688.808594 817.171875 687.535156 817.476562 686.273438 817.835938 C 685.011719 818.195312 683.769531 818.609375 682.542969 819.074219 C 681.316406 819.539062 680.109375 820.054688 678.925781 820.625 C 677.742188 821.191406 676.585938 821.808594 675.457031 822.472656 C 674.324219 823.136719 673.226562 823.847656 672.152344 824.605469 C 671.082031 825.367188 670.046875 826.167969 669.042969 827.015625 C 668.042969 827.859375 667.078125 828.746094 666.148438 829.675781 C 665.222656 830.601562 664.335938 831.566406 663.488281 832.570312 C 662.640625 833.574219 661.839844 834.609375 661.082031 835.679688 C 660.324219 836.75 659.613281 837.851562 658.949219 838.980469 C 658.28125 840.113281 657.667969 841.269531 657.097656 842.453125 C 656.53125 843.636719 656.015625 844.839844 655.550781 846.066406 C 655.085938 847.292969 654.671875 848.539062 654.3125 849.800781 C 653.953125 851.0625 653.648438 852.335938 653.394531 853.625 C 653.144531 854.910156 652.945312 856.207031 652.804688 857.511719 C 651.144531 874.144531 650.382812 890.816406 650.515625 907.535156 C 650.652344 890.820312 649.894531 874.144531 648.234375 857.511719 C 648.089844 856.207031 647.894531 854.910156 647.640625 853.625 C 647.390625 852.335938 647.085938 851.0625 646.726562 849.800781 C 646.363281 848.539062 645.953125 847.296875 645.488281 846.070312 C 645.023438 844.84375 644.507812 843.636719 643.941406 842.453125 C 643.371094 841.273438 642.757812 840.113281 642.089844 838.984375 C 641.425781 837.851562 640.714844 836.753906 639.957031 835.683594 C 639.199219 834.613281 638.398438 833.574219 637.550781 832.570312 C 636.707031 831.570312 635.820312 830.605469 634.890625 829.675781 C 633.964844 828.75 633 827.863281 631.996094 827.015625 C 630.996094 826.167969 629.957031 825.367188 628.886719 824.609375 C 627.816406 823.851562 626.714844 823.140625 625.585938 822.472656 C 624.457031 821.808594 623.300781 821.191406 622.117188 820.625 C 620.933594 820.058594 619.730469 819.542969 618.503906 819.078125 C 617.277344 818.609375 616.03125 818.199219 614.769531 817.839844 C 613.507812 817.476562 612.234375 817.171875 610.949219 816.917969 C 609.660156 816.667969 608.363281 816.46875 607.0625 816.328125 C 590.425781 814.671875 573.75 813.910156 557.035156 814.046875 C 573.75 814.183594 590.425781 813.425781 607.0625 811.769531 C 608.363281 811.625 609.660156 811.429688 610.949219 811.175781 C 612.234375 810.925781 613.511719 810.617188 614.769531 810.257812 C 616.03125 809.898438 617.277344 809.484375 618.503906 809.019531 C 619.730469 808.554688 620.933594 808.039062 622.117188 807.472656 C 623.300781 806.90625 624.457031 806.289062 625.589844 805.625 C 626.71875 804.957031 627.820312 804.246094 628.890625 803.488281 C 629.960938 802.730469 630.996094 801.929688 632 801.082031 C 633.003906 800.238281 633.96875 799.351562 634.894531 798.421875 C 635.824219 797.496094 636.710938 796.53125 637.554688 795.527344 C 638.402344 794.523438 639.203125 793.488281 639.960938 792.417969 C 640.71875 791.347656 641.433594 790.246094 642.097656 789.113281 C 642.761719 787.984375 643.378906 786.828125 643.945312 785.644531 C 644.511719 784.460938 645.027344 783.257812 645.492188 782.03125 C 645.960938 780.804688 646.371094 779.558594 646.730469 778.296875 C 647.089844 777.035156 647.398438 775.761719 647.648438 774.476562 C 647.902344 773.1875 648.097656 771.890625 648.242188 770.585938 C 649.898438 753.953125 650.65625 737.277344 650.515625 720.5625 C 650.382812 737.277344 651.144531 753.953125 652.804688 770.585938 Z M 652.804688 770.585938 " fill-opacity="1" fill-rule="nonzero"/></g><g fill="#304945" fill-opacity="1"><g transform="translate(221.543917, 951.458394)"><g><path d="M 93.375 -37.265625 C 93.375 -29.660156 93.957031 -24.175781 95.125 -20.8125 C 96.289062 -17.457031 98.554688 -15.195312 101.921875 -14.03125 C 105.285156 -12.863281 110.765625 -12.28125 118.359375 -12.28125 L 133.265625 -12.28125 C 156.054688 -12.28125 175.78125 -18.34375 192.4375 -30.46875 C 209.101562 -42.59375 220.210938 -59.03125 225.765625 -79.78125 C 225.765625 -80.363281 226.347656 -80.65625 227.515625 -80.65625 C 228.097656 -80.65625 228.753906 -80.4375 229.484375 -80 C 230.210938 -79.5625 230.578125 -79.195312 230.578125 -78.90625 C 227.953125 -49.976562 226.640625 -25.867188 226.640625 -6.578125 C 226.640625 -4.234375 226.128906 -2.550781 225.109375 -1.53125 C 224.085938 -0.507812 222.40625 0 220.0625 0 L 13.15625 0 C 12.570312 0 12.28125 -0.875 12.28125 -2.625 C 12.28125 -4.382812 12.570312 -5.265625 13.15625 -5.265625 C 22.5 -5.265625 29.289062 -5.992188 33.53125 -7.453125 C 37.769531 -8.910156 40.691406 -11.757812 42.296875 -16 C 43.910156 -20.238281 44.71875 -26.742188 44.71875 -35.515625 L 44.71875 -238.46875 C 44.71875 -247.238281 43.910156 -253.671875 42.296875 -257.765625 C 40.691406 -261.859375 37.695312 -264.707031 33.3125 -266.3125 C 28.925781 -267.914062 22.207031 -268.71875 13.15625 -268.71875 C 12.570312 -268.71875 12.28125 -269.59375 12.28125 -271.34375 C 12.28125 -273.101562 12.570312 -273.984375 13.15625 -273.984375 L 35.515625 -273.546875 C 48.953125 -272.960938 60.054688 -272.671875 68.828125 -272.671875 C 77.585938 -272.671875 88.691406 -272.960938 102.140625 -273.546875 L 124.5 -273.984375 C 125.375 -273.984375 125.8125 -273.101562 125.8125 -271.34375 C 125.8125 -269.59375 125.375 -268.71875 124.5 -268.71875 C 115.4375 -268.71875 108.710938 -267.914062 104.328125 -266.3125 C 99.941406 -264.707031 97.019531 -261.785156 95.5625 -257.546875 C 94.101562 -253.304688 93.375 -246.800781 93.375 -238.03125 Z M 93.375 -37.265625 "/></g></g></g><g fill="#304945" fill-opacity="1"><g transform="translate(382.423335, 951.458394)"><g/></g></g><g fill="#304945" fill-opacity="1"><g transform="translate(406.970624, 951.458394)"><g><path d="M 99.515625 -35.515625 C 99.515625 -26.453125 100.242188 -19.875 101.703125 -15.78125 C 103.160156 -11.6875 106.007812 -8.910156 110.25 -7.453125 C 114.488281 -5.992188 121.285156 -5.265625 130.640625 -5.265625 C 131.515625 -5.265625 131.953125 -4.382812 131.953125 -2.625 C 131.953125 -0.875 131.515625 0 130.640625 0 C 120.992188 0 113.394531 -0.144531 107.84375 -0.4375 L 74.53125 -0.875 L 42.078125 -0.4375 C 36.234375 -0.144531 28.34375 0 18.40625 0 C 17.820312 0 17.53125 -0.875 17.53125 -2.625 C 17.53125 -4.382812 17.820312 -5.265625 18.40625 -5.265625 C 27.757812 -5.265625 34.628906 -5.992188 39.015625 -7.453125 C 43.398438 -8.910156 46.394531 -11.757812 48 -16 C 49.601562 -20.238281 50.40625 -26.742188 50.40625 -35.515625 L 50.40625 -238.46875 C 50.40625 -247.238281 49.601562 -253.671875 48 -257.765625 C 46.394531 -261.859375 43.398438 -264.707031 39.015625 -266.3125 C 34.628906 -267.914062 27.757812 -268.71875 18.40625 -268.71875 C 17.820312 -268.71875 17.53125 -269.59375 17.53125 -271.34375 C 17.53125 -273.101562 17.820312 -273.984375 18.40625 -273.984375 L 42.078125 -273.546875 C 55.523438 -272.960938 66.34375 -272.671875 74.53125 -272.671875 C 83.582031 -272.671875 94.832031 -272.960938 108.28125 -273.546875 L 130.640625 -273.984375 C 131.515625 -273.984375 131.953125 -273.101562 131.953125 -271.34375 C 131.953125 -269.59375 131.515625 -268.71875 130.640625 -268.71875 C 121.578125 -268.71875 114.851562 -267.84375 110.46875 -266.09375 C 106.082031 -264.34375 103.160156 -261.347656 101.703125 -257.109375 C 100.242188 -252.867188 99.515625 -246.363281 99.515625 -237.59375 Z M 99.515625 -35.515625 "/></g></g></g><g fill="#304945" fill-opacity="1"><g transform="translate(478.861624, 951.458394)"><g><path d="M 160.4375 5.265625 C 133.257812 5.265625 109.078125 -1.085938 87.890625 -13.796875 C 66.703125 -26.515625 50.335938 -43.757812 38.796875 -65.53125 C 27.253906 -87.3125 21.484375 -111.054688 21.484375 -136.765625 C 21.484375 -166.867188 29.082031 -192.660156 44.28125 -214.140625 C 59.476562 -235.617188 78.984375 -251.765625 102.796875 -262.578125 C 126.617188 -273.398438 150.945312 -278.8125 175.78125 -278.8125 C 203.550781 -278.8125 227.957031 -272.304688 249 -259.296875 C 270.039062 -246.296875 286.1875 -229.125 297.4375 -207.78125 C 308.6875 -186.445312 314.3125 -163.800781 314.3125 -139.84375 C 314.3125 -113.25 307.296875 -88.84375 293.265625 -66.625 C 279.242188 -44.414062 260.46875 -26.878906 236.9375 -14.015625 C 213.414062 -1.160156 187.914062 5.265625 160.4375 5.265625 Z M 174.90625 -5.703125 C 191.269531 -5.703125 205.953125 -10.445312 218.953125 -19.9375 C 231.960938 -29.4375 242.117188 -43.316406 249.421875 -61.578125 C 256.734375 -79.847656 260.390625 -101.695312 260.390625 -127.125 C 260.390625 -154.007812 256.296875 -178.046875 248.109375 -199.234375 C 239.929688 -220.429688 228.097656 -237.019531 212.609375 -249 C 197.117188 -260.976562 179 -266.96875 158.25 -266.96875 C 131.65625 -266.96875 111.195312 -256.957031 96.875 -236.9375 C 82.5625 -216.914062 75.40625 -188.9375 75.40625 -153 C 75.40625 -124.644531 79.710938 -99.289062 88.328125 -76.9375 C 96.953125 -54.582031 108.789062 -37.117188 123.84375 -24.546875 C 138.894531 -11.984375 155.914062 -5.703125 174.90625 -5.703125 Z M 174.90625 -5.703125 "/></g></g></g><g fill="#304945" fill-opacity="1"><g transform="translate(736.620019, 951.458394)"><g><path d="M 310.375 -5.265625 C 310.957031 -5.265625 311.25 -4.382812 311.25 -2.625 C 311.25 -0.875 310.957031 0 310.375 0 L 232.34375 0 C 225.90625 0 213.921875 -11.613281 196.390625 -34.84375 C 178.859375 -58.082031 157.671875 -90.597656 132.828125 -132.390625 C 130.492188 -132.097656 127.132812 -131.953125 122.75 -131.953125 C 111.34375 -131.953125 103.304688 -132.097656 98.640625 -132.390625 L 98.640625 -35.515625 C 98.640625 -26.453125 99.367188 -19.875 100.828125 -15.78125 C 102.285156 -11.6875 105.132812 -8.910156 109.375 -7.453125 C 113.613281 -5.992188 120.410156 -5.265625 129.765625 -5.265625 C 130.347656 -5.265625 130.640625 -4.382812 130.640625 -2.625 C 130.640625 -0.875 130.347656 0 129.765625 0 C 120.117188 0 112.519531 -0.144531 106.96875 -0.4375 L 73.640625 -0.875 L 41.640625 -0.4375 C 35.796875 -0.144531 27.90625 0 17.96875 0 C 17.09375 0 16.65625 -0.875 16.65625 -2.625 C 16.65625 -4.382812 17.09375 -5.265625 17.96875 -5.265625 C 27.320312 -5.265625 34.117188 -5.992188 38.359375 -7.453125 C 42.597656 -8.910156 45.519531 -11.757812 47.125 -16 C 48.726562 -20.238281 49.53125 -26.742188 49.53125 -35.515625 L 49.53125 -238.46875 C 49.53125 -247.238281 48.800781 -253.671875 47.34375 -257.765625 C 45.882812 -261.859375 42.960938 -264.707031 38.578125 -266.3125 C 34.191406 -267.914062 27.46875 -268.71875 18.40625 -268.71875 C 17.820312 -268.71875 17.53125 -269.59375 17.53125 -271.34375 C 17.53125 -273.101562 17.820312 -273.984375 18.40625 -273.984375 L 41.640625 -273.546875 C 55.085938 -272.960938 65.753906 -272.671875 73.640625 -272.671875 C 83.578125 -272.671875 93.953125 -273.109375 104.765625 -273.984375 C 108.566406 -274.273438 113.316406 -274.566406 119.015625 -274.859375 C 124.710938 -275.148438 131.070312 -275.296875 138.09375 -275.296875 C 164.6875 -275.296875 185.285156 -270.398438 199.890625 -260.609375 C 214.503906 -250.816406 221.8125 -237.15625 221.8125 -219.625 C 221.8125 -203.550781 217.425781 -189.007812 208.65625 -176 C 199.894531 -163 188.207031 -152.550781 173.59375 -144.65625 C 196.976562 -109.59375 216.5625 -82.125 232.34375 -62.25 C 248.125 -42.375 262.148438 -27.90625 274.421875 -18.84375 C 286.691406 -9.789062 298.675781 -5.265625 310.375 -5.265625 Z M 98.640625 -144.65625 C 105.648438 -143.488281 114.125 -142.90625 124.0625 -142.90625 C 141.007812 -142.90625 153.207031 -147.65625 160.65625 -157.15625 C 168.113281 -166.65625 171.84375 -181.925781 171.84375 -202.96875 C 171.84375 -226.9375 168.332031 -243.445312 161.3125 -252.5 C 154.300781 -261.5625 144.222656 -266.09375 131.078125 -266.09375 C 119.390625 -266.09375 111.0625 -263.898438 106.09375 -259.515625 C 101.125 -255.128906 98.640625 -247.820312 98.640625 -237.59375 Z M 98.640625 -144.65625 "/></g></g></g><g fill="#304945" fill-opacity="1"><g transform="translate(964.569465, 951.458394)"><g><path d="M 314.3125 -5.265625 C 315.769531 -5.265625 316.5 -4.382812 316.5 -2.625 C 316.5 -0.875 315.769531 0 314.3125 0 C 308.46875 0 299.410156 -0.289062 287.140625 -0.875 C 274.273438 -1.457031 265.066406 -1.75 259.515625 -1.75 C 252.210938 -1.75 243.300781 -1.457031 232.78125 -0.875 C 222.84375 -0.289062 214.953125 0 209.109375 0 C 207.929688 0 207.34375 -0.875 207.34375 -2.625 C 207.34375 -4.382812 207.929688 -5.265625 209.109375 -5.265625 C 216.703125 -5.265625 222.175781 -6.066406 225.53125 -7.671875 C 228.894531 -9.273438 230.578125 -12.125 230.578125 -16.21875 C 230.578125 -21.1875 227.65625 -29.515625 221.8125 -41.203125 L 192.015625 -100.390625 L 84.171875 -100.390625 L 67.078125 -62.25 C 63.273438 -53.769531 61.375 -45.878906 61.375 -38.578125 C 61.375 -28.054688 65.097656 -19.875 72.546875 -14.03125 C 80.003906 -8.1875 90.015625 -5.265625 102.578125 -5.265625 C 104.035156 -5.265625 104.765625 -4.382812 104.765625 -2.625 C 104.765625 -0.875 104.035156 0 102.578125 0 C 97.316406 0 89.71875 -0.289062 79.78125 -0.875 C 68.675781 -1.457031 59.03125 -1.75 50.84375 -1.75 C 42.957031 -1.75 33.460938 -1.457031 22.359375 -0.875 C 12.421875 -0.289062 4.382812 0 -1.75 0 C -2.914062 0 -3.5 -0.875 -3.5 -2.625 C -3.5 -4.382812 -2.914062 -5.265625 -1.75 -5.265625 C 6.425781 -5.265625 13.289062 -6.941406 18.84375 -10.296875 C 24.394531 -13.660156 29.945312 -19.648438 35.5 -28.265625 C 41.0625 -36.890625 47.640625 -49.679688 55.234375 -66.640625 L 150.359375 -275.734375 C 150.941406 -276.609375 152.257812 -277.046875 154.3125 -277.046875 C 156.644531 -277.046875 157.957031 -276.609375 158.25 -275.734375 L 267.84375 -60.0625 C 278.070312 -39.3125 286.546875 -24.988281 293.265625 -17.09375 C 299.992188 -9.207031 307.007812 -5.265625 314.3125 -5.265625 Z M 89.859375 -112.65625 L 185.4375 -112.65625 L 135.015625 -212.609375 Z M 89.859375 -112.65625 "/></g></g></g></svg>